<?xml version="1.0" standalone="no"?>
<!DOCTYPE svg PUBLIC "-//W3C//DTD SVG 20010904//EN"
 "http://www.w3.org/TR/2001/REC-SVG-20010904/DTD/svg10.dtd">
<svg version="1.0" xmlns="http://www.w3.org/2000/svg"
 width="1065.000000pt" height="1065.000000pt" viewBox="0 0 1065.000000 1065.000000"
 preserveAspectRatio="xMidYMid meet">
<metadata>
Created by potrace 1.14, written by Peter Selinger 2001-2017
</metadata>
<g transform="translate(0.000000,1065.000000) scale(0.100000,-0.100000)"
fill="#000000" stroke="none">
<path d="M3310 10440 c-63 -18 -124 -54 -179 -106 -58 -53 -137 -162 -167
-228 -8 -17 -18 -38 -23 -46 -18 -29 -48 -105 -70 -175 -13 -38 -25 -77 -28
-85 -8 -18 -7 -18 -17 -57 -4 -18 -16 -35 -27 -38 -10 -4 -25 -12 -32 -18 -39
-36 -56 -38 -100 -13 -55 32 -141 63 -195 70 -35 4 -52 15 -91 55 -33 34 -62
53 -92 61 -147 40 -312 -67 -335 -216 -7 -47 17 -134 42 -155 12 -10 14 -26 8
-78 -4 -36 -7 -70 -7 -76 1 -34 16 -123 24 -137 5 -10 7 -18 4 -18 -3 0 1 -12
8 -27 14 -26 13 -28 -94 -135 -59 -60 -126 -131 -148 -157 -22 -26 -51 -59
-63 -73 -46 -50 -74 -84 -103 -123 -17 -22 -40 -51 -52 -65 -12 -14 -33 -41
-47 -60 -54 -76 -102 -143 -116 -164 -42 -64 -75 -115 -96 -147 l-23 -37 -78
0 c-68 0 -143 -6 -193 -16 -8 -1 -33 -6 -55 -11 -45 -8 -227 -75 -235 -86 -3
-3 -21 -14 -40 -24 -77 -39 -198 -141 -265 -225 -82 -103 -162 -273 -179 -382
-6 -41 -26 -88 -37 -88 -4 0 -26 -39 -50 -87 -24 -49 -60 -113 -80 -143 -51
-76 -71 -141 -75 -236 -3 -92 11 -156 54 -247 16 -34 36 -80 43 -102 13 -38
78 -145 106 -173 11 -11 13 -257 13 -1308 0 -1401 4 -1295 -46 -1348 -18 -19
-84 -145 -84 -160 0 -7 -13 -37 -28 -67 -88 -166 -76 -369 28 -507 22 -29 40
-57 40 -63 0 -17 51 -112 80 -149 15 -19 28 -38 28 -43 4 -62 55 -215 95 -287
11 -19 25 -44 31 -55 42 -78 182 -222 271 -279 70 -45 156 -86 240 -114 81
-27 110 -34 203 -48 15 -2 77 -4 137 -4 128 0 217 12 317 46 l48 16 24 -29
c29 -35 60 -71 84 -99 150 -180 387 -417 557 -559 33 -28 62 -53 65 -56 14
-16 290 -219 299 -219 5 0 11 -3 13 -8 4 -10 205 -139 318 -204 187 -107 463
-239 638 -305 67 -25 353 -121 382 -128 8 -2 30 -8 48 -14 17 -5 32 -7 32 -4
0 3 6 1 13 -5 7 -6 28 -14 47 -17 19 -3 53 -11 75 -17 22 -5 51 -12 65 -15 14
-2 45 -9 70 -14 65 -15 80 -18 125 -24 22 -3 47 -8 55 -10 21 -6 79 -16 115
-20 17 -2 50 -6 75 -9 187 -24 312 -31 580 -31 259 0 447 10 570 31 14 2 45 6
70 10 25 3 86 12 135 21 50 9 97 17 105 18 8 1 40 7 70 13 30 7 64 14 75 16
76 15 287 75 490 140 6 2 17 6 25 9 8 3 62 24 120 46 108 40 130 49 260 109
176 80 294 143 463 245 65 40 126 77 135 82 35 20 278 195 347 250 39 31 80
63 92 73 98 78 436 406 516 500 32 38 214 262 225 277 4 6 26 35 48 65 63 84
234 345 234 359 0 6 5 11 10 11 6 0 10 5 10 11 0 6 9 24 21 40 22 32 191 362
226 444 45 103 112 276 138 354 19 57 32 81 44 81 33 1 228 77 249 97 7 7 20
13 28 13 8 0 14 5 14 10 0 6 7 10 15 10 8 0 15 5 15 10 0 6 5 10 11 10 29 0
173 138 235 226 68 95 154 299 154 365 0 10 20 50 44 87 24 37 50 85 58 107 7
22 23 51 36 65 63 70 106 205 101 319 -2 51 -39 181 -59 206 -5 6 -21 42 -36
80 -27 70 -82 163 -109 185 -13 11 -15 182 -15 1306 l0 1294 40 52 c42 56 85
138 96 185 4 16 15 39 24 53 54 80 74 259 41 361 -24 70 -53 126 -85 163 -14
16 -26 34 -26 39 0 19 -54 122 -77 147 -12 13 -28 49 -35 80 -6 30 -12 57 -13
60 -1 3 -5 19 -10 35 -8 32 -41 110 -56 135 -5 8 -15 29 -22 45 -22 47 -113
163 -169 214 -28 25 -58 53 -68 62 -65 61 -288 164 -395 183 -16 2 -41 8 -55
11 -41 10 -261 13 -320 4 -121 -18 -201 -40 -290 -82 -36 -17 -67 -31 -70 -31
-10 -3 -95 -60 -108 -73 -7 -7 -17 -13 -21 -13 -4 0 -38 -29 -74 -65 -71 -68
-168 -202 -194 -266 -8 -22 -18 -39 -22 -39 -4 0 -26 17 -48 38 -120 112 -173
158 -309 272 -97 80 -464 335 -524 364 -8 4 -24 12 -35 19 -102 62 -327 178
-470 242 -221 99 -561 216 -754 259 -10 2 -35 9 -55 14 -20 6 -36 8 -36 6 0
-3 -8 0 -18 5 -10 5 -36 12 -58 15 -21 3 -73 12 -114 21 -41 8 -91 17 -110 20
-19 3 -46 7 -60 10 -14 2 -45 7 -70 9 -25 3 -61 7 -80 10 -224 33 -684 38
-955 11 -103 -10 -152 -15 -175 -19 -14 -3 -47 -7 -75 -11 -27 -3 -59 -8 -70
-11 -11 -2 -36 -6 -55 -9 -19 -2 -46 -7 -60 -9 -14 -3 -35 -8 -46 -10 -89 -18
-228 -50 -283 -65 -68 -19 -75 -18 -126 4 -16 7 -73 29 -125 50 -52 20 -104
40 -115 45 -25 10 -193 75 -220 85 -30 10 -136 14 -165 5z"/>
</g>
</svg>
